<svg
  xmlns="http://www.w3.org/2000/svg"
  viewBox="15.5 7.01217 65 65"
  role="img"
  aria-label="Patchmill"
>
  <g transform="translate(16,7.51217)">
    <circle
      cx="32"
      cy="32"
      r="30"
      fill="#020617"
      stroke="#e2e8f0"
      stroke-width="3"
    />
  </g>
  <g transform="matrix(0.30869292,0,0,0.30869292,48,40.438249)">
    <rect x="-43" y="-30" width="86" height="60" rx="12" fill="#e4e4e4" />
    <rect x="-54" y="-13" width="5" height="26" rx="2" fill="#e4e4e4" />
    <rect x="49" y="-13" width="5" height="26" rx="2" fill="#e4e4e4" />
    <rect x="-5" y="-36" width="10" height="8" rx="2" fill="#e4e4e4" />
    <circle cx="-21" cy="0" r="11" fill="#08090b" />
    <circle cx="21" cy="0" r="11" fill="#08090b" />
  </g>
  <g
    stroke="#e4e4e4"
    stroke-width="6"
    stroke-linecap="round"
    transform="matrix(0.12948587,0.12629161,-0.12948587,0.12629161,54.460712,35.583767)"
  >
    <rect
      width="3.4553552"
      height="43.623859"
      x="0.71562642"
      y="-104.35416"
      fill="none"
      stroke-width="4.08322"
      stroke-linejoin="round"
    />
  </g>
  <g
    stroke="#e4e4e4"
    stroke-width="6"
    stroke-linecap="round"
    transform="matrix(0.12948587,0.12629161,-0.12948587,0.12629161,20.353207,65.203442)"
  >
    <rect
      width="3.4553552"
      height="43.623859"
      x="0.71562642"
      y="-104.35416"
      fill="none"
      stroke-width="4.08322"
      stroke-linejoin="round"
    />
  </g>
  <g
    stroke="#e4e4e4"
    stroke-width="6"
    stroke-linecap="round"
    transform="matrix(0.12629161,-0.12948587,0.12629161,0.12948587,42.146629,35.6496)"
  >
    <rect
      width="3.4553552"
      height="43.623859"
      x="0.71562642"
      y="-104.35416"
      fill="none"
      stroke-width="4.08322"
      stroke-linejoin="round"
    />
  </g>
  <g
    stroke="#e4e4e4"
    stroke-width="6"
    stroke-linecap="round"
    transform="matrix(0.12629161,-0.12948587,0.12629161,0.12948587,74.832987,66.615625)"
  >
    <rect
      width="3.4553552"
      height="43.623859"
      x="0.71562642"
      y="-104.35416"
      fill="none"
      stroke-width="4.08322"
      stroke-linejoin="round"
    />
  </g>
  <g
    stroke="#e4e4e4"
    stroke-width="6"
    stroke-linecap="round"
    transform="matrix(0.18086199,-0.00225868,-0.00225868,0.18086199,47.222068,74.883706)"
  >
    <rect
      width="3.4553552"
      height="43.623859"
      x="0.71562642"
      y="-104.35416"
      fill="none"
      stroke-width="4.08322"
      stroke-linejoin="round"
    />
  </g>
  <g
    stroke="#e4e4e4"
    stroke-width="6"
    stroke-linecap="round"
    transform="matrix(0.18086199,-0.00225868,-0.00225868,0.18086199,47.222068,33.296484)"
  >
    <rect
      width="3.4553552"
      height="43.623859"
      x="0.71562642"
      y="-104.35416"
      fill="none"
      stroke-width="4.08322"
      stroke-linejoin="round"
    />
  </g>
  <g
    stroke="#e4e4e4"
    stroke-width="6"
    stroke-linecap="round"
    transform="matrix(0.00225868,0.18086199,-0.18086199,-0.00225868,9.1680373,39.939107)"
  >
    <rect
      width="3.4553552"
      height="43.623859"
      x="0.71562642"
      y="-104.35416"
      fill="none"
      stroke-width="4.08322"
      stroke-linejoin="round"
    />
  </g>
  <g
    stroke="#e4e4e4"
    stroke-width="6"
    stroke-linecap="round"
    transform="matrix(0.00225868,0.18086199,-0.18086199,-0.00225868,56.739031,39.939107)"
  >
    <rect
      width="3.4553552"
      height="43.623859"
      x="0.71562642"
      y="-104.35416"
      fill="none"
      stroke-width="4.08322"
      stroke-linejoin="round"
    />
  </g>
</svg>
